<svg width="30" height="29" viewBox="0 0 30 29" fill="none" xmlns="http://www.w3.org/2000/svg">
<g id="bi:people">
<path id="Vector" d="M28.125 25.375C28.125 25.375 30 25.375 30 23.5625C30 21.75 28.125 16.3125 20.625 16.3125C13.125 16.3125 11.25 21.75 11.25 23.5625C11.25 25.375 13.125 25.375 13.125 25.375H28.125ZM13.1662 23.5625C13.1524 23.5607 13.1386 23.5582 13.125 23.5553C13.1269 23.0767 13.4381 21.6884 14.55 20.4377C15.585 19.2651 17.4037 18.125 20.625 18.125C23.8444 18.125 25.6631 19.2669 26.7 20.4377C27.8119 21.6884 28.1213 23.0786 28.125 23.5553L28.11 23.5589C28.1013 23.5603 28.0925 23.5615 28.0837 23.5625H13.1662ZM20.625 12.6875C21.6196 12.6875 22.5734 12.3056 23.2766 11.6258C23.9799 10.9459 24.375 10.0239 24.375 9.0625C24.375 8.10109 23.9799 7.17906 23.2766 6.49924C22.5734 5.81942 21.6196 5.4375 20.625 5.4375C19.6304 5.4375 18.6766 5.81942 17.9734 6.49924C17.2701 7.17906 16.875 8.10109 16.875 9.0625C16.875 10.0239 17.2701 10.9459 17.9734 11.6258C18.6766 12.3056 19.6304 12.6875 20.625 12.6875ZM26.25 9.0625C26.25 9.77656 26.1045 10.4836 25.8218 11.1433C25.5391 11.803 25.1248 12.4025 24.6025 12.9074C24.0801 13.4123 23.4601 13.8128 22.7776 14.0861C22.0951 14.3594 21.3637 14.5 20.625 14.5C19.8863 14.5 19.1549 14.3594 18.4724 14.0861C17.7899 13.8128 17.1699 13.4123 16.6475 12.9074C16.1252 12.4025 15.7109 11.803 15.4282 11.1433C15.1455 10.4836 15 9.77656 15 9.0625C15 7.62039 15.5926 6.23734 16.6475 5.21761C17.7024 4.19788 19.1332 3.625 20.625 3.625C22.1168 3.625 23.5476 4.19788 24.6025 5.21761C25.6574 6.23734 26.25 7.62039 26.25 9.0625ZM13.005 16.82C12.255 16.5917 11.4818 16.4416 10.6987 16.3723C10.2587 16.3319 9.81699 16.3119 9.375 16.3125C1.875 16.3125 0 21.75 0 23.5625C0 24.7714 0.624375 25.375 1.875 25.375H9.78C9.50204 24.8092 9.36342 24.1888 9.375 23.5625C9.375 21.7319 10.0819 19.8614 11.4188 18.299C11.8744 17.7661 12.405 17.2677 13.005 16.82ZM9.225 18.125C8.11529 19.7368 7.51583 21.6264 7.5 23.5625H1.875C1.875 23.0912 2.1825 21.6956 3.3 20.4377C4.32188 19.285 6.0975 18.1613 9.225 18.1268V18.125ZM2.8125 9.96875C2.8125 8.52664 3.40513 7.14359 4.46002 6.12386C5.51492 5.10413 6.94566 4.53125 8.4375 4.53125C9.92934 4.53125 11.3601 5.10413 12.415 6.12386C13.4699 7.14359 14.0625 8.52664 14.0625 9.96875C14.0625 11.4109 13.4699 12.7939 12.415 13.8136C11.3601 14.8334 9.92934 15.4062 8.4375 15.4062C6.94566 15.4062 5.51492 14.8334 4.46002 13.8136C3.40513 12.7939 2.8125 11.4109 2.8125 9.96875ZM8.4375 6.34375C7.44294 6.34375 6.48911 6.72567 5.78585 7.40549C5.08259 8.08531 4.6875 9.00734 4.6875 9.96875C4.6875 10.9302 5.08259 11.8522 5.78585 12.532C6.48911 13.2118 7.44294 13.5938 8.4375 13.5938C9.43206 13.5938 10.3859 13.2118 11.0892 12.532C11.7924 11.8522 12.1875 10.9302 12.1875 9.96875C12.1875 9.00734 11.7924 8.08531 11.0892 7.40549C10.3859 6.72567 9.43206 6.34375 8.4375 6.34375Z" fill="#767A7F"/>
</g>
</svg>
