<svg width="41" height="45" viewBox="0 0 41 45" fill="none" xmlns="http://www.w3.org/2000/svg">
<path id="Vector" d="M37.9479 45H3.33365C2.67792 45 2.04904 44.7449 1.58537 44.2909C1.1217 43.8368 0.861206 43.221 0.861206 42.5789V19.2318C0.899284 18.6384 1.15682 18.079 1.58563 17.6581L18.8928 0.710088C19.1224 0.484979 19.3951 0.306398 19.6952 0.184556C19.9954 0.0627134 20.3171 0 20.642 0C20.9669 0 21.2887 0.0627134 21.5888 0.184556C21.889 0.306398 22.1616 0.484979 22.3913 0.710088L39.6984 17.6581C39.9282 17.8826 40.1103 18.1494 40.2342 18.4432C40.3581 18.737 40.4214 19.0519 40.4203 19.3698V42.5789C40.4203 43.221 40.1598 43.8368 39.6962 44.2909C39.2325 44.7449 38.6036 45 37.9479 45ZM23.4394 8.58587C21.8843 7.0631 19.3972 7.0631 17.8421 8.58587L7.00748 19.1957C6.23912 19.9481 5.8061 20.9782 5.8061 22.0536V36.1577C5.8061 38.3669 7.59696 40.1577 9.8061 40.1577H31.4754C33.6846 40.1577 35.4754 38.3669 35.4754 36.1577V22.0536C35.4754 20.9782 35.0424 19.9481 34.2741 19.1957L23.4394 8.58587ZM30.5306 28.052C30.5306 29.3892 29.4466 30.4732 28.1094 30.4732H13.1721C11.835 30.4732 10.751 29.3892 10.751 28.052C10.751 26.7149 11.835 25.6309 13.1721 25.6309H28.1094C29.4466 25.6309 30.5306 26.7149 30.5306 28.052Z" fill="white"/>
</svg>
